<svg xmlns="http://www.w3.org/2000/svg" xmlns:xlink="http://www.w3.org/1999/xlink" width="419" zoomAndPan="magnify" viewBox="0 0 314.25 54.75" height="73" preserveAspectRatio="xMidYMid meet" version="1.0"><defs><g/><clipPath id="e131b552c5"><path d="M 0.339844 3 L 36 3 L 36 44 L 0.339844 44 Z M 0.339844 3 " clip-rule="nonzero"/></clipPath><clipPath id="d08253b020"><path d="M 76 3 L 110.835938 3 L 110.835938 44 L 76 44 Z M 76 3 " clip-rule="nonzero"/></clipPath><clipPath id="894f15a983"><path d="M 36.808594 1.28125 L 74.648438 1.28125 L 74.648438 52.585938 L 36.808594 52.585938 Z M 36.808594 1.28125 " clip-rule="nonzero"/></clipPath></defs><g clip-path="url(#e131b552c5)"><path fill="#211d1d" d="M 1.945312 20.941406 L 30.949219 3.523438 C 31.386719 3.28125 31.875 3.160156 32.40625 3.160156 C 33.210938 3.160156 33.894531 3.445312 34.464844 4.015625 C 35.039062 4.585938 35.324219 5.273438 35.324219 6.074219 C 35.324219 7.117188 34.824219 7.96875 33.828125 8.625 L 8.90625 23.566406 L 33.828125 38.503906 C 34.824219 39.160156 35.324219 40.011719 35.324219 41.054688 C 35.324219 41.859375 35.039062 42.542969 34.464844 43.113281 C 33.894531 43.6875 33.210938 43.96875 32.40625 43.96875 C 31.875 43.96875 31.386719 43.847656 30.949219 43.605469 L 1.945312 26.1875 C 0.875 25.507812 0.339844 24.632812 0.339844 23.566406 C 0.339844 22.496094 0.875 21.621094 1.945312 20.941406 " fill-opacity="1" fill-rule="nonzero"/></g><g clip-path="url(#d08253b020)"><path fill="#211d1d" d="M 111.117188 23.566406 C 111.117188 24.632812 110.582031 25.507812 109.511719 26.1875 L 80.507812 43.605469 C 80.070312 43.847656 79.585938 43.96875 79.050781 43.96875 C 78.246094 43.96875 77.5625 43.6875 76.992188 43.113281 C 76.421875 42.542969 76.136719 41.859375 76.136719 41.054688 C 76.136719 40.011719 76.632812 39.160156 77.628906 38.503906 L 102.554688 23.566406 L 77.628906 8.625 C 76.632812 7.96875 76.136719 7.117188 76.136719 6.074219 C 76.136719 5.273438 76.421875 4.585938 76.992188 4.015625 C 77.5625 3.445312 78.246094 3.160156 79.050781 3.160156 C 79.585938 3.160156 80.070312 3.28125 80.507812 3.523438 L 109.511719 20.941406 C 110.582031 21.621094 111.117188 22.496094 111.117188 23.566406 " fill-opacity="1" fill-rule="nonzero"/></g><g clip-path="url(#894f15a983)"><path fill="#113d78" d="M 69.992188 22.296875 C 66.679688 28.039062 59.339844 30.007812 53.597656 26.691406 C 47.851562 23.375 45.886719 16.03125 49.199219 10.289062 C 52.519531 4.546875 59.859375 2.582031 65.597656 5.894531 C 71.34375 9.210938 73.308594 16.550781 69.992188 22.296875 Z M 67.101562 3.296875 C 67.09375 3.292969 67.089844 3.292969 67.085938 3.285156 C 59.910156 -0.84375 50.742188 1.617188 46.601562 8.789062 C 42.722656 15.511719 44.632812 23.976562 50.773438 28.429688 L 48.003906 33.234375 L 46.949219 32.628906 C 46.738281 32.503906 46.464844 32.574219 46.34375 32.789062 L 36.914062 49.132812 C 36.785156 49.34375 36.859375 49.617188 37.070312 49.738281 L 41.898438 52.527344 C 42.109375 52.648438 42.382812 52.574219 42.507812 52.363281 L 51.9375 36.019531 C 52.058594 35.804688 51.988281 35.535156 51.777344 35.410156 L 50.722656 34.804688 L 52.820312 31.171875 L 53.492188 30 C 60.425781 33.097656 68.71875 30.515625 72.59375 23.796875 C 76.738281 16.621094 74.277344 7.441406 67.101562 3.296875 " fill-opacity="1" fill-rule="nonzero"/></g><path fill="#113d78" d="M 62.097656 6.015625 C 56.546875 7.058594 51.941406 10.558594 49.359375 15.277344 C 49.910156 10.265625 53.96875 6.203125 59.179688 5.824219 C 60.183594 5.75 61.160156 5.824219 62.097656 6.015625 " fill-opacity="1" fill-rule="nonzero"/><g fill="#211d1d" fill-opacity="1"><g transform="translate(126.214381, 33.653061)"><g><path d="M 15.015625 -23.0625 L 15.015625 -18.453125 L 6.9375 -18.453125 L 6.9375 -13.859375 L 14.390625 -13.859375 L 14.390625 -9.25 L 6.9375 -9.25 L 6.9375 0 L 1.671875 0 L 1.671875 -23.0625 Z M 15.015625 -23.0625 "/></g></g></g><g fill="#211d1d" fill-opacity="1"><g transform="translate(145.697642, 33.653061)"><g><path d="M 2.140625 -22.328125 C 2.722656 -22.910156 3.414062 -23.203125 4.21875 -23.203125 C 5.019531 -23.203125 5.707031 -22.910156 6.28125 -22.328125 C 6.863281 -21.753906 7.15625 -21.066406 7.15625 -20.265625 C 7.15625 -19.460938 6.863281 -18.769531 6.28125 -18.1875 C 5.707031 -17.613281 5.019531 -17.328125 4.21875 -17.328125 C 3.414062 -17.328125 2.722656 -17.613281 2.140625 -18.1875 C 1.566406 -18.769531 1.28125 -19.460938 1.28125 -20.265625 C 1.28125 -21.066406 1.566406 -21.753906 2.140625 -22.328125 Z M 1.671875 -14.34375 L 1.671875 0 L 6.625 0 L 6.625 -14.34375 Z M 1.671875 -14.34375 "/></g></g></g><g fill="#211d1d" fill-opacity="1"><g transform="translate(157.774028, 33.653061)"><g><path d="M 1.671875 0 L 1.671875 -14.34375 L 6.625 -14.34375 L 6.625 -12.828125 L 6.6875 -12.828125 C 7.96875 -14.117188 9.335938 -14.765625 10.796875 -14.765625 C 11.503906 -14.765625 12.207031 -14.671875 12.90625 -14.484375 C 13.601562 -14.296875 14.269531 -14.003906 14.90625 -13.609375 C 15.550781 -13.222656 16.070312 -12.671875 16.46875 -11.953125 C 16.875 -11.234375 17.078125 -10.398438 17.078125 -9.453125 L 17.078125 0 L 12.125 0 L 12.125 -8.109375 C 12.125 -8.847656 11.882812 -9.5 11.40625 -10.0625 C 10.9375 -10.625 10.320312 -10.90625 9.5625 -10.90625 C 8.8125 -10.90625 8.132812 -10.613281 7.53125 -10.03125 C 6.925781 -9.457031 6.625 -8.816406 6.625 -8.109375 L 6.625 0 Z M 1.671875 0 "/></g></g></g><g fill="#211d1d" fill-opacity="1"><g transform="translate(179.884635, 33.653061)"><g><path d="M 2.65625 -1.765625 C 1.3125 -3.234375 0.640625 -5.03125 0.640625 -7.15625 C 0.640625 -9.28125 1.3125 -11.078125 2.65625 -12.546875 C 4 -14.023438 5.703125 -14.765625 7.765625 -14.765625 C 9.671875 -14.765625 11.238281 -14.164062 12.46875 -12.96875 L 12.46875 -24.046875 L 17.421875 -24.046875 L 17.421875 0 L 12.515625 0 L 12.515625 -1.625 L 12.46875 -1.625 C 11.238281 -0.257812 9.671875 0.421875 7.765625 0.421875 C 5.703125 0.421875 4 -0.304688 2.65625 -1.765625 Z M 6.859375 -9.578125 C 6.210938 -8.953125 5.890625 -8.144531 5.890625 -7.15625 C 5.890625 -6.164062 6.195312 -5.359375 6.8125 -4.734375 C 7.4375 -4.109375 8.25 -3.796875 9.25 -3.796875 C 10.21875 -3.796875 11.015625 -4.113281 11.640625 -4.75 C 12.265625 -5.382812 12.578125 -6.1875 12.578125 -7.15625 C 12.578125 -8.144531 12.253906 -8.953125 11.609375 -9.578125 C 10.972656 -10.210938 10.1875 -10.53125 9.25 -10.53125 C 8.300781 -10.53125 7.503906 -10.210938 6.859375 -9.578125 Z M 6.859375 -9.578125 "/></g></g></g><g fill="#211d1d" fill-opacity="1"><g transform="translate(202.610145, 33.653061)"><g><path d="M 1.671875 -23.0625 L 8.359375 -23.0625 C 11.566406 -23.0625 14.304688 -21.96875 16.578125 -19.78125 C 18.847656 -17.59375 19.984375 -14.847656 19.984375 -11.546875 C 19.984375 -8.222656 18.847656 -5.46875 16.578125 -3.28125 C 14.316406 -1.09375 11.578125 0 8.359375 0 L 1.671875 0 Z M 6.9375 -4.703125 L 7.75 -4.703125 C 9.664062 -4.703125 11.234375 -5.347656 12.453125 -6.640625 C 13.671875 -7.929688 14.289062 -9.554688 14.3125 -11.515625 C 14.3125 -13.472656 13.703125 -15.101562 12.484375 -16.40625 C 11.265625 -17.707031 9.6875 -18.359375 7.75 -18.359375 L 6.9375 -18.359375 Z M 6.9375 -4.703125 "/></g></g></g><g fill="#211d1d" fill-opacity="1"><g transform="translate(226.872925, 33.653061)"><g><path d="M 0.21875 -18.453125 L 0.21875 -23.0625 L 16.4375 -23.0625 L 16.4375 -18.453125 L 10.953125 -18.453125 L 10.953125 0 L 5.703125 0 L 5.703125 -18.453125 Z M 0.21875 -18.453125 "/></g></g></g></svg>